<?xml version="1.0"?>
<svg xmlns="http://www.w3.org/2000/svg" height="512px" version="1.1" viewBox="0 -10 600 600" width="512px">
<g id="surface1">
<path d="M 30 450 L 30 570 C 30 575.523438 34.476562 580 40 580 L 220 580 C 225.523438 580 230 575.523438 230 570 L 230 450 C 229.953125 411.363281 198.636719 380.046875 160 380 L 100 380 C 61.363281 380.046875 30.046875 411.363281 30 450 Z M 160 400 C 187.601562 400.035156 209.964844 422.398438 210 450 L 210 560 L 50 560 L 50 450 C 50.035156 422.398438 72.398438 400.035156 100 400 Z M 160 400 " style=" fill-rule:nonzero;fill-opacity:1;" stroke="#FFFFFF" fill="#FFFFFF"/>
<path d="M 570 0 L 30 0 C 13.433594 0 0 13.433594 0 30 L 0 330 C 0 346.566406 13.433594 360 30 360 L 81 360 C 108.21875 386.679688 151.78125 386.679688 179 360 L 260 360 L 260 387.640625 L 231.050781 445.53125 C 229.5 448.632812 229.667969 452.3125 231.488281 455.257812 C 233.316406 458.207031 236.53125 460 240 460 L 360 460 C 363.476562 460.019531 366.710938 458.234375 368.546875 455.28125 C 370.382812 452.328125 370.550781 448.636719 369 445.53125 L 340 387.640625 L 340 360 L 570 360 C 586.566406 360 600 346.566406 600 330 L 600 30 C 600 13.433594 586.566406 0 570 0 Z M 80 245 L 80 220 C 80 214.476562 84.476562 210 90 210 L 170 210 C 175.523438 210 180 214.476562 180 220 L 180 250 C 180 253.148438 181.484375 256.113281 184 258 L 200 270 L 113.328125 270 Z M 180 191.839844 L 180 190 L 290 190 L 290 240 L 200 240 L 200 220 C 199.945312 207.335938 191.945312 196.0625 180 191.839844 Z M 310 190 L 420 190 L 420 240 L 310 240 Z M 310 170 L 310 120 L 420 120 L 420 170 Z M 290 170 L 180 170 L 180 120 L 290 120 Z M 199.058594 298.351562 C 198.511719 295.523438 197.777344 292.734375 196.871094 290 L 230 290 C 234.304688 290 238.125 287.246094 239.488281 283.164062 C 240.851562 279.078125 239.445312 274.585938 236 272 L 220 260 L 290 260 L 290 310 L 200 310 C 199.992188 306.097656 199.671875 302.203125 199.058594 298.351562 Z M 310 260 L 420 260 L 420 310 L 310 310 Z M 440 260 L 550 260 L 550 310 L 440 310 Z M 550 240 L 440 240 L 440 190 L 550 190 Z M 550 170 L 440 170 L 440 120 L 550 120 Z M 550 100 L 440 100 L 440 50 L 550 50 Z M 420 100 L 310 100 L 310 50 L 420 50 Z M 290 100 L 180 100 L 180 50 L 290 50 Z M 160 100 L 50 100 L 50 50 L 160 50 Z M 50 120 L 160 120 L 160 170 L 50 170 Z M 50 190 L 90 190 C 73.433594 190 60 203.433594 60 220 L 60 240 L 50 240 Z M 50 260 L 66.671875 260 L 75.277344 266.449219 C 67.925781 275.644531 63.03125 286.5625 61.058594 298.167969 C 60.351562 302.074219 59.996094 306.035156 60 310 L 50 310 Z M 130 360 C 108.78125 360.023438 89.875 346.605469 82.890625 326.570312 C 80.96875 321.257812 79.992188 315.648438 80 310 C 79.996094 307.195312 80.25 304.40625 80.761719 301.648438 C 82.203125 293.140625 85.835938 285.152344 91.296875 278.472656 L 104 288 C 105.734375 289.296875 107.835938 290 110 290 L 175.621094 290 C 177.335938 293.671875 178.578125 297.542969 179.320312 301.527344 C 179.761719 304.332031 179.992188 307.164062 180 310 C 180.003906 315.703125 179.007812 321.363281 177.0625 326.71875 C 170.042969 346.6875 151.167969 360.039062 130 360 Z M 321 394.46875 L 343.820312 440 L 256.179688 440 L 279 394.46875 C 279.671875 393.078125 280.015625 391.546875 280 390 L 280 360 L 320 360 L 320 390 C 319.984375 391.546875 320.328125 393.078125 321 394.46875 Z M 580 330 C 580 335.523438 575.523438 340 570 340 L 193 340 C 194.078125 337.859375 195.042969 335.667969 195.890625 333.429688 C 196.289062 332.308594 196.460938 331.128906 196.8125 330 L 560 330 C 565.523438 330 570 325.523438 570 320 L 570 40 C 570 34.476562 565.523438 30 560 30 L 40 30 C 34.476562 30 30 34.476562 30 40 L 30 320 C 30 325.523438 34.476562 330 40 330 L 63.179688 330 C 63.511719 331.078125 63.671875 332.222656 64.046875 333.28125 C 64.917969 335.570312 65.902344 337.8125 67 340 L 30 340 C 24.476562 340 20 335.523438 20 330 L 20 30 C 20 24.476562 24.476562 20 30 20 L 570 20 C 575.523438 20 580 24.476562 580 30 Z M 580 330 " style=" fill-rule:nonzero;fill-opacity:1;" stroke="#FFFFFF" fill="#FFFFFF"/>
</g>
</svg>
